<?xml version="1.0" encoding="UTF-8" standalone="no"?>
<!-- Created with Inkscape (http://www.inkscape.org/) -->

<svg
   width="128"
   height="128"
   viewBox="0 0 128 128"
   version="1.1"
   id="svg5"
   inkscape:version="1.2 (1:1.2+202206011327+fc4e4096c5)"
   sodipodi:docname="KeyPaste.svg"
   xml:space="preserve"
   xmlns:inkscape="http://www.inkscape.org/namespaces/inkscape"
   xmlns:sodipodi="http://sodipodi.sourceforge.net/DTD/sodipodi-0.dtd"
   xmlns="http://www.w3.org/2000/svg"
   xmlns:svg="http://www.w3.org/2000/svg"><sodipodi:namedview
     id="namedview7"
     pagecolor="#ffffff"
     bordercolor="#666666"
     borderopacity="1.0"
     inkscape:showpageshadow="2"
     inkscape:pageopacity="0.0"
     inkscape:pagecheckerboard="true"
     inkscape:deskcolor="#d1d1d1"
     inkscape:document-units="mm"
     showgrid="true"
     shape-rendering="auto"
     inkscape:zoom="1"
     inkscape:cx="64"
     inkscape:cy="67.5"
     inkscape:window-width="1920"
     inkscape:window-height="999"
     inkscape:window-x="0"
     inkscape:window-y="0"
     inkscape:window-maximized="1"
     inkscape:current-layer="layer1"><inkscape:grid
       type="xygrid"
       id="grid2222"
       originx="0"
       originy="0" /></sodipodi:namedview><defs
     id="defs2"><inkscape:path-effect
       effect="mirror_symmetry"
       start_point="16,0"
       end_point="16,7"
       center_point="16.054688,3.4843201"
       id="path-effect3406"
       is_visible="true"
       lpeversion="1.2"
       lpesatellites=""
       mode="X"
       discard_orig_path="false"
       fuse_paths="true"
       oposite_fuse="true"
       split_items="false"
       split_open="false"
       link_styles="false" /></defs><g
     inkscape:label="Katman 1"
     inkscape:groupmode="layer"
     id="layer1"><rect
       style="fill:#bd6428;fill-opacity:1;stroke:none;stroke-width:4.28344;stroke-linecap:butt;stroke-linejoin:round;stroke-miterlimit:4;stroke-dasharray:none;stroke-dashoffset:0;stroke-opacity:1"
       id="rect193"
       width="88"
       height="112"
       x="-108"
       y="16"
       ry="8"
       rx="8"
       transform="scale(-1,1)" /><path
       id="rect193-2"
       style="fill:#ffffff;stroke-width:3.5871;stroke-linejoin:round"
       d="M 98,24 H 30 c -1.108,0 -2,0.892 -2,2 v 92 c 0,1.108 0.892,2 2,2 H 76 L 100,96 V 26 c 0,-1.108 -0.892,-2 -2,-2 z"
       sodipodi:nodetypes="sssssccss" /><path
       id="path3460"
       style="fill:#9ba7af;fill-opacity:1;fill-rule:evenodd;stroke:none;stroke-width:0;stroke-linejoin:round;stroke-dasharray:none"
       d="m 67.999988,10 a 4,4 0 0 1 -4,4 4,4 0 0 1 -4,-4 4,4 0 0 1 4,-4 4,4 0 0 1 4,4 z m -4,-10 C 61.626964,0.117204 59.31312,1.0814972 57.5078,2.6171876 55.891836,3.8798912 54.930304,5.7264208 54.351552,7.65625 c -0.81236,2.379166 -3.131928,3.751134 -5.4375,4.390625 -1.843572,0.747317 -4.27008,1.493728 -4.890628,3.609375 -0.022,2.902209 0.0364,5.807098 -0.0156,8.710938 -0.0692,2.134282 1.96596,3.7131 3.992164,3.632812 h 16 16 c 2.026204,0.08029 4.061356,-1.49853 3.992188,-3.632812 -0.05216,-2.90384 0.0064,-5.808729 -0.0156,-8.710938 -0.620572,-2.115647 -3.04708,-2.862057 -4.890652,-3.609375 -2.305572,-0.639491 -4.62514,-2.011459 -5.4375,-4.390625 C 73.069672,5.7264208 72.10814,3.8798912 70.492176,2.6171876 68.686856,1.0814972 66.373012,0.1172056 63.999988,0 Z" /><path
       style="fill:#cecece;fill-opacity:1;stroke:none;stroke-width:0;stroke-linecap:butt;stroke-linejoin:miter;stroke-dasharray:none;stroke-opacity:1"
       d="M 100,96 H 80 c -4,0 -4,4 -4,4 v 20 z"
       id="path5622"
       sodipodi:nodetypes="ccccc" /><g
       aria-label="K"
       id="text6050"
       style="font-size:64px;line-height:1.25;letter-spacing:0px;word-spacing:0px;fill:#808080;stroke-width:8"><path
         d="m 53.765625,50.484375 v 16.0625 l 18.21875,-19 q 1.3125,-1.375 2.21875,-2.03125 0.9375,-0.65625 2.46875,-0.65625 2,0 3.21875,1.1875 1.25,1.15625 1.25,2.84375 0,2.03125 -2.09375,4.03125 l -11.28125,10.6875 13,18.625 q 1.375,1.9375 2.0625,3.40625 0.6875,1.4375 0.6875,2.8125 0,1.53125 -1.21875,2.65625 -1.1875,1.125 -3.25,1.125 -1.9375,0 -3.15625,-0.8125 -1.21875,-0.84375 -2.0625,-2.21875 -0.84375,-1.375 -1.5,-2.5 l -10.96875,-16.875 -7.59375,7.28125 v 9.46875 q 0,2.875 -1.3125,4.28125 -1.3125,1.375 -3.375,1.375 -1.1875,0 -2.28125,-0.625 -1.09375,-0.625 -1.6875,-1.6875 -0.4375,-0.875 -0.53125,-2.03125 -0.09375,-1.15625 -0.09375,-3.34375 v -34.0625 q 0,-2.8125 1.21875,-4.21875 1.25,-1.40625 3.375,-1.40625 2.09375,0 3.375,1.40625 1.3125,1.375 1.3125,4.21875 z"
         style="font-family:'Arial Rounded MT Bold';-inkscape-font-specification:'Arial Rounded MT Bold, '"
         id="path496" /></g></g></svg>
